<svg width="34" height="45" viewBox="0 0 34 45" fill="none" xmlns="http://www.w3.org/2000/svg">
<path d="M14.3158 0C8.05263 0 3.57895 6.3 3.57895 12.6C3.57895 26.55 15.2105 37.8 15.2105 37.8C15.2105 37.8 7.15789 26.1 7.15789 12.6C7.15789 1.8 14.3158 0 14.3158 0ZM17 0C14.6737 0 10.7368 2.8431 10.7368 13.5C10.7368 23.4522 15.728 36.6637 15.941 37.2217L16.1612 37.8H17.8388L18.059 37.2217C18.2711 36.6637 23.2632 23.4522 23.2632 13.5C23.2632 2.8431 19.3263 0 17 0ZM19.6842 0C19.6842 0 26.8421 1.8 26.8421 12.6C26.8421 26.1 18.7895 37.8 18.7895 37.8C18.7895 37.8 30.4211 26.55 30.4211 12.6C30.4211 6.3 25.9474 0 19.6842 0ZM7.15789 1.8C7.15789 1.8 0 4.5 0 12.6C0 27.9 13.8684 37.8 13.8684 37.8C13.8684 37.8 1.78947 27 1.78947 12.6C1.78947 5.175 7.15789 1.8 7.15789 1.8ZM26.8421 1.8C26.8421 1.8 32.2105 5.175 32.2105 12.6C32.2105 27 20.1316 37.8 20.1316 37.8C20.1316 37.8 34 27.9 34 12.6C34 4.5 26.8421 1.8 26.8421 1.8ZM13.4211 39.6C13.1455 39.6 12.8868 39.7276 12.7168 39.9463C12.5468 40.165 12.4854 40.4489 12.5525 40.718L13.4473 44.318C13.5475 44.7176 13.9051 45 14.3158 45H19.6842C20.0949 45 20.4525 44.7185 20.5527 44.318L21.4475 40.718C21.5146 40.4489 21.4523 40.165 21.2832 39.9463C21.1141 39.7276 20.8545 39.6 20.5789 39.6H13.4211Z" fill="#F5F5F5"/>
</svg>
