<svg width="57" height="45" viewBox="0 0 57 45" fill="none" xmlns="http://www.w3.org/2000/svg">
<path d="M47.412 1.48806L43.8293 4.47037L28.5748 16.5487L13.3202 4.35108L9.73753 1.36877C8.89351 0.624818 7.86319 0.161053 6.7742 0.0349314C5.68522 -0.0911906 4.58545 0.125873 3.61112 0.65923C2.63679 1.19259 1.83073 2.0188 1.2928 3.03551C0.75487 4.05222 0.508712 5.21474 0.58482 6.37906V40.9441C0.58482 42.0198 0.985875 43.0514 1.69976 43.812C2.41364 44.5727 3.38187 45 4.39145 45H13.3202V21.9765L28.5748 34.1742L43.8293 21.9765V45H52.7581C53.7677 45 54.7359 44.5727 55.4498 43.812C56.1637 43.0514 56.5647 42.0198 56.5647 40.9441V6.37906C56.6173 5.22479 56.354 4.07911 55.8069 3.08128C55.2598 2.08346 54.4524 1.27646 53.4829 0.758382C52.5134 0.240307 51.4236 0.0334679 50.3458 0.163006C49.268 0.292545 48.2488 0.752883 47.412 1.48806Z" fill="#F5F5F5"/>
</svg>
