<svg width="32" height="30" viewBox="0 0 32 30" fill="none" xmlns="http://www.w3.org/2000/svg">
<path fill-rule="evenodd" clip-rule="evenodd" d="M16.4286 0C7.86484 0 0.928589 6.88228 0.928589 15.3794C0.928589 22.1848 5.36546 27.9328 11.5267 29.9706C12.3017 30.1052 12.5923 29.6438 12.5923 29.2401C12.5923 28.8748 12.573 27.6637 12.573 26.3757C8.67859 27.087 7.67109 25.4337 7.36109 24.5686C7.18671 24.1264 6.43109 22.7615 5.77234 22.3963C5.22984 22.1079 4.45484 21.3966 5.75296 21.3774C6.97359 21.3582 7.84546 22.4924 8.13609 22.9538C9.53109 25.2799 11.7592 24.6263 12.6505 24.2226C12.7861 23.2229 13.193 22.5501 13.6386 22.1656C10.1898 21.7811 6.58609 20.4546 6.58609 14.572C6.58609 12.8995 7.18671 11.5153 8.17484 10.4388C8.01984 10.0543 7.47734 8.4779 8.32984 6.36323C8.32984 6.36323 9.62796 5.95952 12.5923 7.93962C13.8323 7.59358 15.1498 7.42056 16.4673 7.42056C17.7848 7.42056 19.1023 7.59358 20.3423 7.93962C23.3067 5.9403 24.6048 6.36323 24.6048 6.36323C25.4573 8.4779 24.9148 10.0543 24.7598 10.4388C25.748 11.5153 26.3486 12.8803 26.3486 14.572C26.3486 20.4738 22.7255 21.7811 19.2767 22.1656C19.8386 22.6462 20.323 23.5689 20.323 25.0108C20.323 27.0678 20.3036 28.721 20.3036 29.2401C20.3036 29.6438 20.5942 30.1244 21.3692 29.9706C27.4917 27.9328 31.9286 22.1656 31.9286 15.3794C31.9286 6.88228 24.9923 0 16.4286 0Z" fill="#F5F5F5"/>
</svg>
