<svg width="47" height="45" viewBox="0 0 47 45" fill="none" xmlns="http://www.w3.org/2000/svg">
<path fill-rule="evenodd" clip-rule="evenodd" d="M23.5 0C10.7925 0 0.5 10.3234 0.5 23.0691C0.5 33.2772 7.08375 41.8993 16.2262 44.9559C17.3762 45.1578 17.8075 44.4657 17.8075 43.8601C17.8075 43.3123 17.7788 41.4956 17.7788 39.5635C12 40.6305 10.505 38.1505 10.045 36.8529C9.78625 36.1897 8.665 34.1423 7.6875 33.5944C6.8825 33.1618 5.7325 32.0949 7.65875 32.0661C9.47 32.0372 10.7637 33.7386 11.195 34.4306C13.265 37.9198 16.5713 36.9394 17.8938 36.3339C18.095 34.8344 18.6987 33.8251 19.36 33.2484C14.2425 32.6716 8.895 30.6819 8.895 21.858C8.895 19.3492 9.78625 17.273 11.2525 15.6582C11.0225 15.0814 10.2175 12.7168 11.4825 9.54484C11.4825 9.54484 13.4087 8.93928 17.8075 11.9094C19.6475 11.3904 21.6025 11.1308 23.5575 11.1308C25.5125 11.1308 27.4675 11.3904 29.3075 11.9094C33.7063 8.91044 35.6325 9.54484 35.6325 9.54484C36.8975 12.7168 36.0925 15.0814 35.8625 15.6582C37.3288 17.273 38.22 19.3204 38.22 21.858C38.22 30.7108 32.8438 32.6716 27.7263 33.2484C28.56 33.9693 29.2788 35.3534 29.2788 37.5161C29.2788 40.6016 29.25 43.0816 29.25 43.8601C29.25 44.4657 29.6813 45.1866 30.8313 44.9559C39.9163 41.8993 46.5 33.2484 46.5 23.0691C46.5 10.3234 36.2075 0 23.5 0Z" fill="#F5F5F5"/>
</svg>
