<svg width="31" height="30" viewBox="0 0 31 30" fill="none" xmlns="http://www.w3.org/2000/svg">
<path d="M28.2079 0H2.64343C1.41882 0 0.428589 0.966797 0.428589 2.16211V27.832C0.428589 29.0273 1.41882 30 2.64343 30H28.2079C29.4325 30 30.4286 29.0273 30.4286 27.8379V2.16211C30.4286 0.966797 29.4325 0 28.2079 0ZM9.32898 25.5645H4.87585V11.2441H9.32898V25.5645ZM7.10242 9.29297C5.67273 9.29297 4.51843 8.13867 4.51843 6.71484C4.51843 5.29102 5.67273 4.13672 7.10242 4.13672C8.52625 4.13672 9.68054 5.29102 9.68054 6.71484C9.68054 8.13281 8.52625 9.29297 7.10242 9.29297ZM25.993 25.5645H21.5458V18.6035C21.5458 16.9453 21.5165 14.8066 19.2313 14.8066C16.9169 14.8066 16.5653 16.6172 16.5653 18.4863V25.5645H12.1239V11.2441H16.3895V13.2012H16.4481C17.0399 12.0762 18.493 10.8867 20.6552 10.8867C25.161 10.8867 25.993 13.8516 25.993 17.707V25.5645V25.5645Z" fill="#F5F5F5"/>
</svg>
