<svg width="50" height="45" viewBox="0 0 50 45" fill="none" xmlns="http://www.w3.org/2000/svg">
<path d="M24.9965 27.2606C27.6259 27.2606 29.7577 25.1288 29.7577 22.4994C29.7577 19.8698 27.6259 17.7383 24.9965 17.7383C22.3669 17.7383 20.2352 19.8698 20.2352 22.4994C20.2352 25.1288 22.3669 27.2606 24.9965 27.2606Z" fill="#F5F5F5"/>
<path fill-rule="evenodd" clip-rule="evenodd" d="M8.65138 16.0096C4.41784 17.9147 2.38061 20.301 2.38061 22.4992C2.38061 24.6972 4.41784 27.0835 8.65138 28.9887C12.7732 30.8436 18.5509 32.0215 24.9963 32.0215C31.4416 32.0215 37.2193 30.8436 41.3412 28.9887C45.5747 27.0835 47.6119 24.6972 47.6119 22.4992C47.6119 20.301 45.5747 17.9147 41.3412 16.0096C37.2193 14.1548 31.4416 12.9768 24.9963 12.9768C18.5509 12.9768 12.7732 14.1548 8.65138 16.0096ZM7.67447 13.8387C12.1687 11.8163 18.294 10.5962 24.9963 10.5962C31.6986 10.5962 37.8238 11.8163 42.3181 13.8387C46.7006 15.8109 49.9926 18.7808 49.9926 22.4992C49.9926 26.2174 46.7006 29.1874 42.3181 31.1596C37.8238 33.182 31.6986 34.402 24.9963 34.402C18.294 34.402 12.1687 33.182 7.67447 31.1596C3.29191 29.1874 0 26.2174 0 22.4992C0 18.7808 3.29191 15.8109 7.67447 13.8387Z" fill="#F5F5F5"/>
<path fill-rule="evenodd" clip-rule="evenodd" d="M22.4435 5.10012C18.6769 2.38634 15.5916 1.81521 13.688 2.91426C11.7844 4.0133 10.7363 6.9708 11.2032 11.5897C11.6578 16.0867 13.5265 21.6793 16.7492 27.2612C19.9718 32.8431 23.881 37.2576 27.5481 39.9C31.3146 42.6137 34.4 43.1847 36.3035 42.0857C38.2072 40.9867 39.2551 38.0292 38.7883 33.4103C38.3338 28.9133 36.4651 23.3205 33.2423 17.7387C30.0196 12.1569 26.1106 7.74229 22.4435 5.10012ZM23.8349 3.16864C27.8337 6.04958 31.9529 10.7442 35.3041 16.5485C38.6552 22.3528 40.6612 28.2675 41.1569 33.171C41.6402 37.9523 40.7141 42.2881 37.4939 44.1475C34.2736 46.0066 30.0557 44.6407 26.1565 41.8313C22.1579 38.9503 18.0387 34.2558 14.6875 28.4514C11.3364 22.6471 9.33036 16.7324 8.83471 11.8291C8.35136 7.04764 9.27746 2.71179 12.4977 0.852604C15.7179 -1.0066 19.9359 0.359306 23.8349 3.16864Z" fill="#F5F5F5"/>
<path fill-rule="evenodd" clip-rule="evenodd" d="M38.7883 11.5897C39.2551 6.9708 38.2072 4.0133 36.3035 2.91426C34.4 1.81521 31.3146 2.38634 27.5481 5.10012C23.881 7.74231 19.9718 12.1569 16.7492 17.7387C13.5265 23.3205 11.6578 28.9133 11.2032 33.4103C10.7363 38.0292 11.7844 40.9867 13.688 42.0857C15.5916 43.1847 18.6769 42.6137 22.4435 39.9C26.1106 37.2576 30.0196 32.8431 33.2423 27.2612C36.4651 21.6793 38.3338 16.0867 38.7883 11.5897ZM41.1569 11.8291C40.6612 16.7324 38.6552 22.6471 35.3041 28.4514C31.9529 34.2558 27.8337 38.9503 23.8349 41.8313C19.9359 44.6407 15.7179 46.0066 12.4977 44.1475C9.27746 42.2881 8.35136 37.9523 8.83471 33.171C9.33036 28.2675 11.3364 22.3528 14.6875 16.5485C18.0387 10.7442 22.1579 6.04958 26.1565 3.16864C30.0557 0.359306 34.2736 -1.0066 37.4939 0.852604C40.7141 2.71179 41.6402 7.04764 41.1569 11.8291Z" fill="#F5F5F5"/>
</svg>
