<svg width="48" height="45" viewBox="0 0 48 45" fill="none" xmlns="http://www.w3.org/2000/svg">
<path d="M32.845 31.4276C34.5943 31.2467 35.9214 29.7386 35.8611 27.929C35.8007 26.1193 34.2927 24.6716 32.483 24.6716H32.3624C30.4924 24.7319 29.0447 26.3003 29.105 28.1702C29.1653 29.0751 29.5273 29.8593 30.0702 30.4022C28.0192 34.4437 24.8825 37.3995 20.1774 39.8727C16.9803 41.5617 13.6626 42.1649 10.3449 41.7427C7.63047 41.3807 5.51922 40.1743 4.19214 38.1837C2.26184 35.2279 2.08088 32.0308 3.70956 28.8338C4.85568 26.5416 6.66532 24.8526 7.81143 24.008C7.57015 23.2239 7.20822 21.8968 7.02725 20.9316C-1.7194 27.2654 -0.814571 35.8311 1.83959 39.8727C3.83021 42.8888 7.87176 44.7587 12.3356 44.7587C13.542 44.7587 14.7484 44.6381 15.9549 44.3365C23.6761 42.8284 29.5273 38.244 32.845 31.4276Z" fill="#F5F5F5"/>
<path d="M43.4617 23.9477C38.8772 18.5791 32.1212 15.6233 24.4 15.6233H23.4348C22.8919 14.5375 21.7458 13.8136 20.4791 13.8136H20.3584C18.4884 13.874 17.0407 15.4423 17.101 17.3123C17.1614 19.1219 18.6694 20.5697 20.4791 20.5697H20.5997C21.9268 20.5094 23.0729 19.6648 23.5555 18.5187H24.6413C29.2257 18.5187 33.5689 19.8458 37.4898 22.4396C40.5059 24.4303 42.6775 27.0241 43.8839 30.1608C44.9094 32.6944 44.8491 35.1675 43.7633 37.2788C42.0743 40.4759 39.2391 42.2252 35.4992 42.2252C33.0863 42.2252 30.7941 41.5013 29.5877 40.9584C28.9241 41.5617 27.7177 42.5268 26.8732 43.13C29.467 44.3365 32.1212 45 34.6547 45C40.4456 45 44.7284 41.8029 46.3571 38.6059C48.1064 35.1072 47.9858 29.075 43.4617 23.9477Z" fill="#F5F5F5"/>
<path d="M12.8182 32.4531C12.8785 34.2628 14.3865 35.7105 16.1962 35.7105H16.3168C18.1868 35.6502 19.6345 34.0818 19.5742 32.2118C19.5139 30.4022 18.0058 28.9545 16.1962 28.9545H16.0755C15.9549 28.9545 15.7739 28.9545 15.6533 29.0148C13.1801 24.9129 12.1546 20.4491 12.5165 15.6233C12.7578 12.004 13.9643 8.8673 16.0755 6.27346C17.8249 4.04156 21.2029 2.95577 23.4951 2.89544C29.8892 2.7748 32.6037 10.7373 32.7847 13.9343C33.5689 14.1153 34.8959 14.5376 35.8008 14.8392C35.0769 5.06703 29.0447 0 23.2538 0C17.8249 0 12.8182 3.92091 10.8275 9.71181C8.05274 17.433 9.86239 24.8526 13.2404 30.7038C12.9388 31.126 12.7578 31.7896 12.8182 32.4531Z" fill="#F5F5F5"/>
</svg>
