<svg width="45" height="45" viewBox="0 0 45 45" fill="none" xmlns="http://www.w3.org/2000/svg">
<path d="M22.5 0C34.9245 0 45 10.0755 45 22.5C45 34.9245 34.9245 45 22.5 45C10.0755 45 0 34.9245 0 22.5C0 10.0755 10.0755 0 22.5 0ZM18.0292 29.997C18.3577 31.2052 18.3217 32.3348 17.982 33.3563L17.8605 33.6938C17.5763 34.3741 17.1749 34.9993 16.6748 35.541C15.3653 36.9652 13.5383 37.503 12.7553 37.0507C11.9115 36.558 12.3323 34.5488 13.851 32.9445C15.4845 31.2233 17.8245 30.114 17.8245 30.114V30.1095L18.0292 29.997ZM36.6097 9.63225C35.5927 5.634 28.9665 4.31775 22.6935 6.5475C18.9675 7.87275 14.9242 9.95625 12.0217 12.6742C8.56575 15.9007 8.01675 18.7132 8.24175 19.8877C9.0405 24.0345 14.724 26.7458 17.0618 28.7573V28.7685C16.371 29.1038 11.3288 31.635 10.1498 34.254C8.883 37.0103 10.3478 38.9813 11.304 39.231C14.2583 40.0478 17.2935 38.556 18.927 36.1395C20.4997 33.7748 20.3625 30.7395 19.6852 29.2477C20.6145 28.9957 21.708 28.8833 23.1142 29.0543C27.054 29.502 27.8415 31.9793 27.6682 32.9918C27.5017 34.002 26.6873 34.5915 26.406 34.7602C26.1225 34.9312 26.0393 34.9875 26.0663 35.1C26.0955 35.2665 26.2373 35.2665 26.46 35.2418C26.7705 35.1855 28.5165 34.398 28.5998 32.481C28.683 30.0645 26.3767 27.3667 22.2705 27.4185C20.583 27.45 19.512 27.5895 18.7538 27.9C18.7026 27.8207 18.6351 27.7532 18.5557 27.702C16.0245 24.9728 11.3265 23.0603 11.5245 19.4333C11.5808 18.1103 12.0577 14.625 20.5245 10.4062C27.4725 6.94575 33.0143 7.90425 33.9728 10.0125C35.3453 13.0185 31.0162 18.6188 23.7892 19.4333C21.033 19.7438 19.5997 18.675 19.2307 18.279C18.8392 17.856 18.7853 17.829 18.6435 17.9168C18.4163 18.0293 18.558 18.3938 18.6435 18.621C18.8685 19.1813 19.7393 20.169 21.2603 20.673C22.581 21.096 25.8143 21.3457 29.6978 19.8292C34.056 18.144 37.458 13.4437 36.4748 9.50625L36.6097 9.63225Z" fill="#F5F5F5"/>
</svg>
