<svg width="38" height="30" viewBox="0 0 38 30" fill="none" xmlns="http://www.w3.org/2000/svg">
<path d="M31.6653 0.992042L29.2433 2.98025L18.9309 11.0325L8.61855 2.90072L6.19657 0.912514C5.62599 0.416545 4.92947 0.107369 4.1933 0.0232876C3.45712 -0.0607937 2.71365 0.0839155 2.05499 0.439487C1.39632 0.795058 0.851406 1.34587 0.487755 2.02367C0.124104 2.70148 -0.0423036 3.47649 0.00914752 4.2527V27.296C0.00914752 28.0132 0.280269 28.7009 0.762868 29.208C1.24547 29.7151 1.90001 30 2.58251 30H8.61855V14.651L18.9309 22.7828L29.2433 14.651V30H35.2793C35.9618 30 36.6164 29.7151 37.099 29.208C37.5816 28.7009 37.8527 28.0132 37.8527 27.296V4.2527C37.8882 3.48319 37.7102 2.7194 37.3404 2.05419C36.9705 1.38897 36.4247 0.850971 35.7693 0.505588C35.1139 0.160205 34.3772 0.0223119 33.6486 0.108671C32.92 0.19503 32.231 0.501922 31.6653 0.992042Z" fill="#F5F5F5"/>
</svg>
