<svg width="30" height="45" viewBox="0 0 30 45" fill="none" xmlns="http://www.w3.org/2000/svg">
<path d="M22.3723 14.9977C24.3222 14.9392 26.1726 14.1235 27.5311 12.7236C28.8897 11.3237 29.6495 9.44962 29.6495 7.49887C29.6495 5.54812 28.8897 3.67408 27.5311 2.27416C26.1726 0.87423 24.3222 0.0585189 22.3723 0H7.37231C5.42243 0.0585189 3.57203 0.87423 2.21349 2.27416C0.854946 3.67408 0.0951095 5.54812 0.0951095 7.49887C0.0951095 9.44962 0.854946 11.3237 2.21349 12.7236C3.57203 14.1235 5.42243 14.9392 7.37231 14.9977C5.40539 15.0318 3.53054 15.8371 2.15161 17.2401C0.772682 18.6432 0 20.5317 0 22.4989C0 24.4661 0.772682 26.3546 2.15161 27.7576C3.53054 29.1606 5.40539 29.9659 7.37231 30C5.415 30.048 3.55398 30.8592 2.1866 32.2605C0.819218 33.6618 0.0538181 35.5421 0.0538181 37.5C0.0538181 39.4579 0.819218 41.3382 2.1866 42.7395C3.55398 44.1408 5.415 44.952 7.37231 45C9.36145 44.9988 11.2688 44.2079 12.6751 42.8012C14.0814 41.3944 14.8717 39.4869 14.8723 37.4977V14.9977H22.3723Z" fill="#F5F5F5"/>
<path d="M22.3726 29.9977C26.5148 29.9977 29.8726 26.6398 29.8726 22.4977C29.8726 18.3555 26.5144 14.9977 22.3723 14.9977C18.2302 14.9977 14.8726 18.3555 14.8726 22.4977C14.8726 26.6398 18.2305 29.9977 22.3726 29.9977Z" fill="#F5F5F5"/>
</svg>
