<svg width="45" height="45" viewBox="0 0 45 45" fill="none" xmlns="http://www.w3.org/2000/svg">
<path d="M44.1502 20.493L24.5031 0.847014C23.9583 0.304547 23.2208 0 22.452 0C21.6832 0 20.9457 0.304547 20.4009 0.847014L16.3302 4.92295L21.5035 10.0995C22.1139 9.89319 22.7699 9.86211 23.397 10.0098C24.0241 10.1574 24.5974 10.4779 25.0516 10.9348C25.5059 11.3918 25.8231 11.9669 25.9672 12.595C26.1112 13.223 26.0765 13.8789 25.8668 14.4882L30.8489 19.478C31.5865 19.2191 32.3902 19.219 33.1279 19.4777C33.8656 19.7363 34.4933 20.2384 34.9078 20.9012C35.3223 21.5641 35.4989 22.3483 35.4086 23.1249C35.3184 23.9015 34.9665 24.6243 34.411 25.1744C33.0631 26.5248 30.8871 26.5248 29.537 25.1744C29.0574 24.6942 28.7297 24.0834 28.5949 23.4182C28.46 22.753 28.5239 22.0629 28.7786 21.4338L24.1116 16.7907V29.0275C24.4401 29.1873 24.7551 29.4078 25.0274 29.6802C25.6708 30.3282 26.0319 31.2044 26.0319 32.1176C26.0319 33.0309 25.6708 33.9071 25.0274 34.5551C24.7064 34.8767 24.3251 35.1319 23.9054 35.3059C23.4857 35.48 23.0358 35.5696 22.5814 35.5696C22.127 35.5696 21.6771 35.48 21.2574 35.3059C20.8377 35.1319 20.4564 34.8767 20.1354 34.5551C19.815 34.2356 19.5609 33.8561 19.3875 33.4382C19.2141 33.0203 19.1248 32.5723 19.1248 32.1199C19.1248 31.6674 19.2141 31.2195 19.3875 30.8016C19.5609 30.3837 19.815 30.0041 20.1354 29.6847C20.4774 29.3471 20.8599 29.0905 21.2695 28.9217V16.5656C20.8487 16.3933 20.4663 16.1393 20.1443 15.8183C19.8223 15.4974 19.5671 15.1157 19.3934 14.6955C19.2197 14.2752 19.131 13.8248 19.1325 13.37C19.1339 12.9153 19.2254 12.4654 19.4018 12.0463L14.3162 6.93504L0.843849 20.3985C-0.281283 21.5328 -0.281283 23.3693 0.843849 24.5037L20.4909 44.1497C20.7597 44.4192 21.079 44.6331 21.4306 44.779C21.7822 44.9249 22.1591 45 22.5398 45C22.9204 45 23.2973 44.9249 23.6489 44.779C24.0005 44.6331 24.3198 44.4192 24.5886 44.1497L44.1434 24.5937C44.4142 24.3255 44.6293 24.0065 44.7764 23.6548C44.9234 23.3032 44.9994 22.9259 45 22.5448C45.0006 22.1636 44.9259 21.7861 44.78 21.434C44.6342 21.0818 44.4201 20.762 44.1502 20.493Z" fill="#F5F5F5"/>
</svg>
