<svg width="45" height="45" viewBox="0 0 45 45" fill="none" xmlns="http://www.w3.org/2000/svg">
<path d="M4.09091 0C1.83068 0 0 1.83068 0 4.09091V40.9091C0 43.1693 1.83068 45 4.09091 45H40.9091C43.1693 45 45 43.1693 45 40.9091V4.09091C45 1.83068 43.1693 0 40.9091 0H4.09091ZM32.0321 10.7346C33.3044 10.7346 34.1735 11.5457 34.1735 12.6523C34.1735 13.7588 33.3044 14.5699 32.0321 14.5699C30.7742 14.5699 29.8948 13.7588 29.8948 12.6523C29.8948 11.5457 30.7742 10.7346 32.0321 10.7346ZM15.9402 12.1768H19.9951L27.1662 32.3557H23.295L21.5891 27.1982H14.1664L12.4285 32.3557H8.78107L15.9402 12.1768ZM17.7699 16.0201L15.0053 24.3417H20.7502L18.0096 16.0201H17.7699ZM30.3143 17.0588H33.766V32.3557H30.3143V17.0588Z" fill="#F5F5F5"/>
</svg>
