<svg width="45" height="45" viewBox="0 0 45 45" fill="none" xmlns="http://www.w3.org/2000/svg">
<path d="M5 0C2.25 0 0 2.25 0 5V40C0 42.75 2.25 45 5 45H40C42.75 45 45 42.75 45 40V5C45 2.25 42.75 0 40 0H5ZM11.8213 12.5H16.4697C22.2847 12.5 22.9834 17.8512 22.9834 19.0137C22.9834 23.6637 19.7291 25.2881 16.7041 25.2881H13.9111V30.1709C13.9111 31.3259 12.9763 32.2656 11.8213 32.2656C10.6663 32.2656 9.72656 31.3259 9.72656 30.1709V14.5947C9.72656 13.4397 10.6663 12.5 11.8213 12.5ZM13.9111 15.7568V22.0361H16.7041C18.5641 22.0361 19.0283 20.6412 19.0283 19.0137C19.0308 17.3837 18.3341 15.7568 16.7041 15.7568H13.9111ZM30.4248 17.3828C32.4898 17.3828 33.9834 18.1132 34.8584 19.2432C35.7384 20.3782 34.9164 22.0312 33.4814 22.0312H33.2422C32.5672 22.0312 31.8977 21.6628 31.6602 21.0303C31.4527 20.4803 31.0448 20.1709 30.4248 20.1709C29.7273 20.1709 29.0283 20.6374 29.0283 21.5674C29.0283 23.8924 35.7715 23.193 35.7715 28.3105C35.7715 31.803 32.2848 32.5 30.4248 32.5C28.2123 32.5 26.6592 31.5936 25.7617 30.3711C24.9217 29.2286 25.7407 27.6172 27.1582 27.6172C27.8282 27.6172 28.4805 27.9761 28.7305 28.5986C29.1155 29.5636 30.0598 29.707 30.4248 29.707C31.3548 29.707 32.0508 29.2405 32.0508 28.3105C32.0508 26.218 25.3027 26.4543 25.3027 21.8018C25.3027 18.3143 28.5623 17.3828 30.4248 17.3828Z" fill="#F5F5F5"/>
</svg>
