<svg width="75" height="45" viewBox="0 0 75 45" fill="none" xmlns="http://www.w3.org/2000/svg">
<path d="M37.5 0C27.4997 0 21.2498 5.0001 18.7495 14.9994C22.5 9.99927 26.8751 8.12494 31.8748 9.37449C34.7277 10.0875 36.7666 12.1579 39.024 14.4487C42.7004 18.1805 46.9554 22.4995 56.2505 22.4995C66.2498 22.4995 72.5006 17.4994 75 7.49922C71.2505 12.4993 66.8754 14.3746 61.8748 13.125C59.0228 12.4121 56.9839 10.3417 54.7265 8.05082C51.0501 4.31904 46.7941 0 37.5 0ZM18.7495 22.4995C8.75016 22.4995 2.49937 27.4996 0 37.4998C3.74953 32.4997 8.12461 30.6245 13.1252 31.875C15.9772 32.5889 18.0161 34.6583 20.2735 36.9482C23.9499 40.68 28.2059 45 37.5 45C47.5003 45 53.7502 39.9999 56.2505 29.9997C52.5 34.9998 48.1249 36.8751 43.1252 35.6246C40.2723 34.9125 38.2334 32.8412 35.976 30.5513C32.2996 26.8195 28.0446 22.4995 18.7495 22.4995Z" fill="#F5F5F5"/>
</svg>
