<svg width="45" height="45" viewBox="0 0 45 45" fill="none" xmlns="http://www.w3.org/2000/svg">
<path fill-rule="evenodd" clip-rule="evenodd" d="M0 0V22.5V45H45V0H0ZM9.86625 24.4125V22.5787L9.9 22.59V20.745L17.775 20.7112C22.1062 20.7112 25.6725 20.7225 25.6725 20.7562C25.7175 20.7787 25.7175 21.6 25.7175 22.6125V24.4125H19.8675V41.0625H15.7162V24.4125H9.86625ZM38.97 22.3088C38.1825 21.4875 37.305 20.97 36.1575 20.7L36.18 20.6775C35.4038 20.475 33.5475 20.4075 32.76 20.565C30.33 21.015 28.6312 22.59 28.1475 24.84C27.99 25.4812 28.0462 27.0787 28.215 27.7312C28.44 28.485 28.9238 29.3962 29.4525 29.9812C30.375 30.9487 31.365 31.5787 33.6938 32.5687C35.7188 33.4687 36.4388 33.8737 36.7988 34.3687C37.0575 34.7625 37.1362 34.9988 37.1362 35.5162C37.1362 36.0788 36.9562 36.4838 36.54 36.8662C35.5725 37.7438 33.615 37.845 32.1525 37.0912C31.6688 36.8212 30.8362 36.0338 30.465 35.4488L30.1725 35.055L28.9012 35.7975L27.2138 36.7762L26.7862 37.0462C26.7412 37.125 27.54 38.3288 27.9562 38.7788C29.0138 39.9375 30.735 40.8375 32.535 41.175C33.3788 41.3212 35.1788 41.3438 35.9663 41.2088C38.475 40.7925 40.23 39.5212 40.95 37.6425C41.5912 35.9212 41.3775 33.6262 40.4212 32.1637C39.5775 30.8587 38.1825 29.9475 34.965 28.5637C33.2212 27.7987 32.6588 27.4275 32.355 26.8088C32.22 26.5162 32.1525 26.3137 32.1525 25.9537C32.1525 24.7725 33.0525 24.0637 34.4025 24.1537C35.3362 24.2212 35.9325 24.5812 36.5175 25.4137C36.6975 25.7062 36.8775 25.8975 36.9225 25.8637C38.1038 25.1325 40.05 23.8162 40.05 23.7488C40.005 23.5462 39.3862 22.7588 38.97 22.3088Z" fill="#F5F5F5"/>
</svg>
