<svg width="45" height="45" viewBox="0 0 45 45" fill="none" xmlns="http://www.w3.org/2000/svg">
<path d="M22.5 0C10.0744 0 0 10.0744 0 22.5C0 34.9256 10.0744 45 22.5 45C34.9256 45 45 34.9256 45 22.5C45 10.0744 34.9256 0 22.5 0ZM39.5325 14.7056C39.5381 14.8856 39.5662 15.0394 39.5662 15.2269C39.5662 17.1825 39.1988 19.3837 38.0981 22.14L32.4975 38.3344C31.3088 39.0881 30.0319 39.7069 28.6838 40.1794L22.8413 24.1837L17.2331 40.4813C16.0331 40.1288 14.8837 39.6619 13.7962 39.09L5.15063 15.4144C5.65875 14.175 6.2925 13.0031 7.04063 11.9119C7.23188 11.9156 7.4475 11.9212 7.61625 11.9212C9.63375 11.9212 12.7594 11.6756 12.7594 11.6756C13.8019 11.6175 13.9219 13.1438 12.8831 13.2675C12.8831 13.2675 11.8369 13.3894 10.6744 13.4512L17.7019 34.3594L21.9244 21.69L18.9206 13.4475C17.8781 13.3894 16.8956 13.2675 16.8956 13.2675C15.8531 13.2056 15.9788 11.6138 17.0175 11.6756C17.0175 11.6756 20.205 11.9212 22.0988 11.9212C24.1163 11.9212 27.2419 11.6756 27.2419 11.6756C28.2844 11.6175 28.4044 13.1438 27.3656 13.2675C27.3656 13.2675 26.3175 13.3894 25.1569 13.4512L32.1319 34.2L34.0594 27.7612C35.0381 25.2544 35.5275 23.1788 35.5275 21.5231C35.5275 19.1381 34.6725 17.4862 33.9356 16.2019C32.9588 14.61 32.0381 13.2656 32.0381 11.6737C32.0381 10.0819 33.1256 8.59875 34.7212 8.31C36.7537 10.065 38.4 12.2419 39.5325 14.7056Z" fill="#F5F5F5"/>
</svg>
